HIERARCHY
ROOT Hips
{
	OFFSET 0.00000 0.00000 0.00000
	CHANNELS 6 Xposition Yposition Zposition Zrotation Yrotation Xrotation 
	JOINT LHipJoint
	{
		OFFSET 0 0 0
		CHANNELS 3 Zrotation Yrotation Xrotation
		JOINT LeftUpLeg
		{
			OFFSET 1.62329 -1.80800 0.67318
			CHANNELS 3 Zrotation Yrotation Xrotation
			JOINT LeftLeg
			{
				OFFSET 2.57139 -7.06484 0.00000
				CHANNELS 3 Zrotation Yrotation Xrotation
				JOINT LeftFoot
				{
					OFFSET 2.52017 -6.92413 0.00000
					CHANNELS 3 Zrotation Yrotation Xrotation
					JOINT LeftToeBase
					{
						OFFSET 0.23295 -0.64001 2.10214
						CHANNELS 3 Zrotation Yrotation Xrotation
						End Site
						{
							OFFSET 0.00000 -0.00000 1.10139
						}
					}
				}
			}
		}
	}
	JOINT RHipJoint
	{
		OFFSET 0 0 0
		CHANNELS 3 Zrotation Yrotation Xrotation
		JOINT RightUpLeg
		{
			OFFSET -1.48061 -1.80800 0.67318
			CHANNELS 3 Zrotation Yrotation Xrotation
			JOINT RightLeg
			{
				OFFSET -2.63258 -7.23296 0.00000
				CHANNELS 3 Zrotation Yrotation Xrotation
				JOINT RightFoot
				{
					OFFSET -2.54779 -7.00000 0.00000
					CHANNELS 3 Zrotation Yrotation Xrotation
					JOINT RightToeBase
					{
						OFFSET -0.23067 -0.63376 2.12161
						CHANNELS 3 Zrotation Yrotation Xrotation
						End Site
						{
							OFFSET -0.00000 -0.00000 1.11000
						}
					}
				}
			}
		}
	}
	JOINT LowerBack
	{
		OFFSET 0 0 0
		CHANNELS 3 Zrotation Yrotation Xrotation
		JOINT Spine
		{
			OFFSET -0.02108 2.07573 -0.16981
			CHANNELS 3 Zrotation Yrotation Xrotation
			JOINT Spine1
			{
				OFFSET 0.05070 2.08439 -0.03141
				CHANNELS 3 Zrotation Yrotation Xrotation
				JOINT Neck
				{
					OFFSET 0 0 0
					CHANNELS 3 Zrotation Yrotation Xrotation
					JOINT Neck1
					{
						OFFSET -0.10731 1.60408 0.31370
						CHANNELS 3 Zrotation Yrotation Xrotation
						JOINT Head
						{
							OFFSET 0.08411 1.65679 -0.30822
							CHANNELS 3 Zrotation Yrotation Xrotation
							End Site
							{
								OFFSET 0.03911 1.69149 -0.14146
							}
						}
					}
				}
				JOINT LeftShoulder
				{
					OFFSET 0 0 0
					CHANNELS 3 Zrotation Yrotation Xrotation
					JOINT LeftArm
					{
						OFFSET 3.52315 0.73219 -0.54694
						CHANNELS 3 Zrotation Yrotation Xrotation
						JOINT LeftForeArm
						{
							OFFSET 5.32462 -0.00000 -0.00000
							CHANNELS 3 Zrotation Yrotation Xrotation
							JOINT LeftHand
							{
								OFFSET 3.48402 -0.00000 -0.00000
								CHANNELS 3 Zrotation Yrotation Xrotation
								JOINT LeftFingerBase
								{
									OFFSET 0 0 0
									CHANNELS 3 Zrotation Yrotation Xrotation
									JOINT LeftHandIndex1
									{
										OFFSET 0.57248 -0.00000 -0.00000
										CHANNELS 3 Zrotation Yrotation Xrotation
										End Site
										{
											OFFSET 0.46154 -0.00000 -0.00000
										}
									}
								}
								JOINT LThumb
								{
									OFFSET 0 0 0
									CHANNELS 3 Zrotation Yrotation Xrotation
									End Site
									{
										OFFSET 0.46859 -0.00000 0.46859
									}
								}
							}
						}
					}
				}
				JOINT RightShoulder
				{
					OFFSET 0 0 0
					CHANNELS 3 Zrotation Yrotation Xrotation
					JOINT RightArm
					{
						OFFSET -3.41766 0.93592 -0.10019
						CHANNELS 3 Zrotation Yrotation Xrotation
						JOINT RightForeArm
						{
							OFFSET -5.33589 -0.00000 -0.00000
							CHANNELS 3 Zrotation Yrotation Xrotation
							JOINT RightHand
							{
								OFFSET -3.64134 -0.00000 -0.00000
								CHANNELS 3 Zrotation Yrotation Xrotation
								JOINT RightFingerBase
								{
									OFFSET 0 0 0
									CHANNELS 3 Zrotation Yrotation Xrotation
									JOINT RightHandIndex1
									{
										OFFSET -0.73481 -0.00000 -0.00000
										CHANNELS 3 Zrotation Yrotation Xrotation
										End Site
										{
											OFFSET -0.59242 -0.00000 -0.00000
										}
									}
								}
								JOINT RThumb
								{
									OFFSET 0 0 0
									CHANNELS 3 Zrotation Yrotation Xrotation
									End Site
									{
										OFFSET -0.60147 -0.00000 0.60147
									}
								}
							}
						}
					}
				}
			}
		}
	}
}
MOTION
Frames: 15
Frame Time: .0083333
1.4143 17.4965 1.8164 0 0 0 0 0 0 -21 0 0 0 0 0 0 0 0 0 0 0 0 0 0 21 0 0 0 0 0 0 0 0 0 0 0 0 0 0 0 0 0 0 0 0 0 0 -16 0 0 21 0 0 11 0 0 0 -8 0 0 0 0 0 0 0 0 0 0 0 0 0 0 0 0 0 0 0 0 8 0 0 0 0 0 0 0 0 0 0 0 0 0 0 0 0 0
1.4143 17.4965 1.8164 16.5223 -75.9115 -12.3131 0.0000 0.0000 0.0000 -27.5717 -1.9623 -14.8704 2.7165 10.2213 29.6965 0.7801 -7.1241 -15.7999 0.0002 -0.0961 -0.2640 0.0000 0.0000 0.0000 10.0010 6.7087 -18.2016 -4.8252 -13.1842 40.0620 -1.4148 10.9475 -21.4986 -0.0017 -0.2627 0.7218 -5.4320 0.7957 0.9494 1.1424 1.0223 0.8456 4.2182 0.4843 0.2225 -9.4362 1.9361 -25.9849 -3.2650 6.8773 18.1563 1.4000 2.0019 9.8969 0.0000 -0.0000 0.0000 -86.9666 -0.1511 20.6944 16.5881 -26.3116 -3.9030 -0.0000 -0.0000 8.0288 11.0918 25.0885 4.7518 -7.1250 0.0000 -0.0000 -19.5043 54.4071 -4.6420 0.0000 -0.0000 0.0000 85.2869 -2.3194 16.8687 -16.9827 26.8350 -4.0795 0.0000 0.0000 15.2639 -18.7316 5.5337 -1.8729 7.1250 -0.0000 -0.0000 5.9220 -24.1421 2.9973
1.4038 17.4995 1.8267 16.1704 -76.0212 -12.0772 0.0000 0.0000 0.0000 -27.5133 -1.9655 -14.6641 2.7078 10.2063 29.6473 0.7949 -6.8982 -15.9294 0.0012 -0.2253 -0.6189 0.0000 0.0000 0.0000 10.2358 7.3046 -17.7675 -4.7689 -13.1187 39.8143 -1.3362 9.8826 -20.7966 -0.1046 -2.0859 5.7431 -5.3133 0.8309 0.9022 1.0871 1.0734 0.8822 4.0943 0.5078 0.2839 -9.4433 1.8642 -25.8813 -3.1613 6.7391 18.0839 1.4143 1.9589 9.8515 0.0000 0.0000 0.0000 -86.8617 -0.2748 20.6294 16.5874 -26.3107 -3.9027 -0.0000 -0.0000 7.9149 11.0515 25.2492 4.7624 -7.1250 0.0000 -0.0000 -19.6353 54.5511 -4.7451 0.0000 0.0000 0.0000 85.3380 -2.2064 16.3379 -16.7572 26.5366 -3.9783 0.0000 0.0000 16.4497 -18.5224 7.2300 -2.4144 7.1250 -0.0000 -0.0000 6.0431 -22.3729 3.3059
1.4001 17.4983 1.8349 16.7155 -76.0067 -12.6550 0.0000 0.0000 0.0000 -27.7087 -1.8261 -14.6027 2.7001 10.1930 29.6040 0.7964 -6.8490 -15.9408 0.0075 -0.5581 -1.5336 0.0000 0.0000 0.0000 10.1435 7.8894 -17.4119 -4.7554 -13.1029 39.7550 -1.3798 8.5757 -21.0309 -0.1749 -2.6940 7.4279 -5.4631 0.8452 0.8926 1.0333 1.0921 0.8777 4.1229 0.5168 0.2811 -9.5281 1.7896 -25.7795 -3.1292 6.6406 18.0100 1.4211 1.9181 9.8067 -0.0000 0.0000 0.0000 -86.9636 -0.3947 20.2366 16.5766 -26.2962 -3.8979 -0.0000 -0.0000 8.0856 11.0462 25.2740 4.7644 -7.1250 0.0000 -0.0000 -19.6547 54.5734 -4.7610 -0.0000 0.0000 0.0000 85.2839 -2.1891 16.5510 -16.8058 26.6011 -4.0000 0.0000 0.0000 16.5957 -18.3455 6.2933 -2.0817 7.1250 -0.0000 -0.0000 6.1902 -23.3607 3.2465
1.3999 17.4961 1.8422 17.1254 -75.9340 -13.0273 0.0000 0.0000 0.0000 -27.8711 -1.8993 -14.5853 2.6994 10.1917 29.5997 0.8027 -6.7240 -15.9959 0.0141 -0.7656 -2.1040 0.0000 0.0000 0.0000 10.0396 8.3818 -17.1198 -4.7278 -13.0705 39.6331 -1.5395 7.0648 -22.2180 -0.0629 -1.6188 4.4533 -5.5548 0.8292 0.8510 0.9424 1.0726 0.8647 4.0812 0.5068 0.2934 -9.5737 1.7163 -25.8421 -3.0069 6.5413 18.0569 1.4581 1.8817 9.8303 -0.0000 0.0000 0.0000 -86.9333 -0.5009 20.0219 16.6116 -26.3429 -3.9134 -0.0000 -0.0000 8.1687 11.1084 25.3170 4.7994 -7.1250 0.0000 -0.0000 -19.6180 54.6257 -4.7770 -0.0000 0.0000 0.0000 85.3043 -2.0926 16.4602 -16.7516 26.5292 -3.9758 0.0000 0.0000 16.9129 -18.1702 6.2382 -2.0425 7.1250 -0.0000 -0.0000 6.3206 -23.4253 3.3063
1.3960 17.4989 1.8481 16.1657 -75.9260 -12.1395 0.0000 0.0000 0.0000 -27.6471 -2.1396 -14.4344 2.7019 10.1960 29.6140 0.8113 -6.5374 -16.0715 0.0119 -0.7043 -1.9355 0.0000 0.0000 0.0000 10.3449 9.0264 -16.7004 -4.7019 -13.0400 39.5184 -1.6926 5.7636 -23.4160 -0.0078 -0.5713 1.5699 -5.3181 0.8189 0.8764 0.9173 1.0582 0.8409 3.9211 0.5022 0.2605 -9.5144 1.6594 -25.8159 -2.9137 6.4204 18.0832 1.4640 1.8426 9.8361 0.0000 0.0000 0.0000 -86.7748 -0.5285 20.0822 16.6549 -26.4006 -3.9327 -0.0000 -0.0000 7.8784 11.3400 25.4097 4.9183 -7.1250 0.0000 -0.0000 -19.4425 54.7569 -4.7949 0.0000 0.0000 0.0000 85.3731 -2.0279 16.3351 -16.6371 26.3768 -3.9247 0.0000 0.0000 17.1572 -18.1155 6.3735 -2.0799 7.1250 -0.0000 -0.0000 6.3578 -23.2861 3.3464
1.3898 17.5047 1.8526 14.8820 -75.9308 -10.9050 0.0000 0.0000 0.0000 -27.3201 -2.2416 -14.3787 2.7098 10.2098 29.6590 0.8174 -6.5028 -16.1297 0.0123 -0.7169 -1.9701 0.0000 0.0000 0.0000 10.7380 9.7244 -16.3071 -4.6690 -13.0011 39.3726 -1.7073 5.3995 -23.5578 -0.0285 -1.0890 2.9939 -5.0712 0.7749 0.8828 0.9807 0.9997 0.7826 3.8475 0.4768 0.2058 -9.6072 1.6370 -25.6728 -2.7967 6.3706 17.9863 1.5085 1.8371 9.7698 -0.0000 -0.0000 0.0000 -86.8329 -0.5365 19.7491 16.6690 -26.4194 -3.9389 -0.0000 -0.0000 7.7768 11.6631 25.3876 5.0575 -7.1250 0.0000 -0.0000 -19.1101 54.7976 -4.7276 -0.0000 -0.0000 0.0000 85.2618 -2.0227 16.4489 -16.5385 26.2454 -3.8810 0.0000 0.0000 17.1283 -18.2016 6.6505 -2.1808 7.1250 -0.0000 -0.0000 6.2884 -22.9933 3.3520
1.3832 17.5075 1.8567 14.1576 -75.9624 -10.2405 0.0000 0.0000 0.0000 -27.1434 -2.1995 -14.3515 2.7180 10.2239 29.7048 0.8207 -6.4659 -16.1608 0.0165 -0.8293 -2.2792 0.0000 0.0000 0.0000 10.9653 10.1951 -15.9896 -4.6359 -12.9617 39.2253 -1.6233 5.8373 -22.9061 -0.1416 -2.4248 6.6811 -4.9617 0.7244 0.8820 1.0202 0.9326 0.7505 3.8271 0.4450 0.1813 -9.7691 1.6510 -25.6686 -2.5683 6.3971 18.0033 1.6179 1.8671 9.7586 -0.0000 -0.0000 0.0000 -86.9714 -0.5265 19.2134 16.6931 -26.4514 -3.9497 -0.0000 -0.0000 7.7017 12.0227 25.2976 5.2000 -7.1250 0.0000 -0.0000 -18.7023 54.7807 -4.6134 -0.0000 -0.0000 0.0000 85.1393 -1.9797 16.5627 -16.4233 26.0913 -3.8303 0.0000 0.0000 17.1399 -18.4065 7.1439 -2.3698 7.1250 -0.0000 -0.0000 6.1292 -22.4685 3.3401
1.3758 17.5102 1.8623 13.5976 -75.9827 -9.7729 0.0000 0.0000 0.0000 -27.0165 -2.3129 -14.2037 2.7202 10.2277 29.7172 0.8280 -6.3942 -16.2304 0.0116 -0.6943 -1.9080 0.0000 0.0000 0.0000 11.1359 10.3763 -15.7388 -4.6086 -12.9290 39.1031 -1.5759 6.1151 -22.5361 -0.2241 -3.0472 8.4103 -4.9224 0.6973 0.9035 1.0442 0.8953 0.7389 3.8298 0.4272 0.1613 -9.6944 1.6627 -25.6945 -2.5536 6.3853 17.9849 1.6100 1.8701 9.7577 -0.0000 0.0000 0.0000 -87.1340 -0.5342 18.6905 16.7179 -26.4844 -3.9607 -0.0000 -0.0000 7.6139 12.4383 25.3739 5.3994 -7.1250 0.0000 -0.0000 -18.3321 54.9326 -4.5861 -0.0000 0.0000 0.0000 85.1219 -1.9231 16.4579 -16.3383 25.9771 -3.7929 0.0000 0.0000 17.3566 -18.4155 7.0883 -2.3527 7.1250 -0.0000 -0.0000 6.1234 -22.5262 3.3288
1.3678 17.5126 1.8716 13.4963 -75.9618 -9.7144 0.0000 0.0000 0.0000 -27.0433 -2.5129 -14.0305 2.7161 10.2207 29.6944 0.8365 -6.1632 -16.3077 0.0105 -0.6630 -1.8221 0.0000 0.0000 0.0000 11.1571 10.4277 -15.5945 -4.5951 -12.9128 39.0429 -1.6008 5.5927 -22.7629 -0.1027 -2.0668 5.6902 -4.9601 0.6608 0.8283 1.0503 0.8506 0.7488 3.8589 0.4030 0.2176 -9.6919 1.6310 -25.6861 -2.5469 6.3323 17.9057 1.6027 1.8517 9.7295 -0.0000 -0.0000 0.0000 -87.3008 -0.5406 18.2601 16.7557 -26.5346 -3.9776 -0.0000 -0.0000 7.5786 12.7367 25.4260 5.5430 -7.1250 0.0000 -0.0000 -18.0640 55.0397 -4.5634 -0.0000 -0.0000 0.0000 84.9809 -1.8624 16.5490 -16.3303 25.9664 -3.7894 0.0000 0.0000 17.3982 -18.2683 6.7003 -2.2057 7.1250 -0.0000 -0.0000 6.2383 -22.9383 3.3329
1.3541 17.5188 1.8842 13.0986 -75.9817 -9.4186 0.0000 0.0000 0.0000 -27.0120 -2.7242 -13.7605 2.7108 10.2115 29.6644 0.8547 -5.7888 -16.4832 0.0173 -0.8501 -2.3365 0.0000 0.0000 0.0000 11.2706 10.5965 -15.3128 -4.5829 -12.8981 38.9882 -1.6134 4.9262 -22.9280 -0.0203 -0.9190 2.5260 -4.8301 0.6711 0.6782 1.0549 0.8737 0.8292 3.7926 0.4090 0.3839 -9.7668 1.5563 -25.7643 -2.5097 6.2552 17.8577 1.6161 1.8172 9.7250 -0.0000 -0.0000 0.0000 -87.4150 -0.6721 18.0093 16.7362 -26.5087 -3.9689 -0.0000 -0.0000 7.5228 12.9361 25.4130 5.6295 -7.1250 0.0000 -0.0000 -17.8575 55.0658 -4.5202 -0.0000 -0.0000 0.0000 84.7997 -1.7700 16.6955 -16.3317 25.9683 -3.7900 0.0000 0.0000 17.0467 -18.3433 6.4060 -2.1186 7.1250 -0.0000 -0.0000 6.1893 -23.2429 3.2629
1.3505 17.5226 1.8898 12.8096 -75.7283 -9.1335 0.0000 0.0000 0.0000 -27.0189 -2.9960 -13.6320 2.7053 10.2019 29.6331 0.8529 -5.7346 -16.4657 0.0191 -0.8913 -2.4499 0.0000 0.0000 0.0000 11.2966 10.5143 -15.2158 -4.5712 -12.8840 38.9359 -1.5715 4.6698 -22.6478 -0.0101 -0.6502 1.7868 -4.8411 0.6105 0.6783 1.0339 0.7927 0.8166 3.7775 0.3689 0.3792 -9.8016 1.4931 -25.8756 -2.4492 6.1808 17.8346 1.6330 1.7882 9.7348 -0.0000 -0.0000 0.0000 -87.5368 -0.7802 17.7247 16.7008 -26.4617 -3.9531 -0.0000 -0.0000 7.6021 12.8912 25.3629 5.5991 -7.1250 0.0000 -0.0000 -17.8745 55.0091 -4.4998 -0.0000 -0.0000 0.0000 84.7115 -1.7054 16.6345 -16.3011 25.9273 -3.7767 0.0000 0.0000 16.8850 -18.3301 6.2431 -2.0634 7.1250 -0.0000 -0.0000 6.2025 -23.4138 3.2455
1.3458 17.5248 1.8983 12.1867 -75.5524 -8.5264 0.0000 0.0000 0.0000 -26.9285 -3.2503 -13.4948 2.7018 10.1960 29.6137 0.8573 -5.5991 -16.5106 0.0153 -0.7978 -2.1927 0.0000 0.0000 0.0000 11.4013 10.4503 -15.0995 -4.5523 -12.8611 38.8508 -1.5381 4.8202 -22.3770 -0.0225 -0.9674 2.6590 -4.7717 0.5491 0.6582 1.0560 0.7118 0.7927 3.7618 0.3293 0.3746 -9.7250 1.4827 -25.9845 -2.4470 6.1562 17.8752 1.6207 1.7788 9.7708 -0.0000 0.0000 0.0000 -87.6619 -0.7759 17.5761 16.7015 -26.4626 -3.9534 -0.0000 -0.0000 7.4972 12.8042 25.4783 5.5838 -7.1250 0.0000 -0.0000 -18.0260 55.1026 -4.5813 -0.0000 0.0000 0.0000 84.5933 -1.6796 16.6148 -16.3106 25.9400 -3.7808 0.0000 0.0000 16.9492 -18.5178 5.4561 -1.8241 7.1250 -0.0000 -0.0000 6.0828 -24.2308 3.0670
1.3421 17.5288 1.9049 11.5657 -75.4658 -7.9259 0.0000 0.0000 0.0000 -26.8125 -3.4505 -13.3928 2.7000 10.1927 29.6032 0.8606 -5.4300 -16.5461 0.0144 -0.7758 -2.1322 0.0000 0.0000 0.0000 11.5264 10.4916 -14.9645 -4.5314 -12.8358 38.7568 -1.5574 4.8036 -22.5252 -0.0171 -0.8442 2.3202 -4.7269 0.5240 0.6582 1.1046 0.6780 0.7670 3.7869 0.3137 0.3514 -9.7208 1.4440 -26.0620 -2.3752 6.0952 17.8614 1.6373 1.7606 9.7779 -0.0000 0.0000 0.0000 -87.7405 -0.7127 17.7664 16.7347 -26.5067 -3.9682 -0.0000 -0.0000 6.9145 13.0631 25.6963 5.7450 -7.1250 0.0000 -0.0000 -17.8902 55.3610 -4.6590 -0.0000 0.0000 0.0000 84.4605 -1.6054 15.8859 -16.2130 25.8086 -3.7382 0.0000 0.0000 17.9809 -18.7159 5.2380 -1.7716 7.1250 -0.0000 -0.0000 5.9412 -24.4528 2.9642
1.3393 17.5328 1.9112 11.2740 -75.3698 -7.5985 0.0000 0.0000 0.0000 -26.7699 -3.5732 -13.3675 2.6955 10.1849 29.5777 0.8623 -5.3889 -16.5638 0.0170 -0.8425 -2.3154 0.0000 0.0000 0.0000 11.5513 10.3408 -14.9865 -4.5114 -12.8115 38.6670 -1.5800 4.8091 -22.6941 -0.0178 -0.8608 2.3659 -4.7538 0.5255 0.6159 1.1323 0.6817 0.7441 3.8309 0.3159 0.3507 -9.7459 1.3597 -26.1753 -2.3356 5.9934 17.8376 1.6411 1.7170 9.7903 0.0000 0.0000 0.0000 -87.8287 -0.7139 18.0029 16.7482 -26.5246 -3.9742 -0.0000 -0.0000 6.3886 13.3384 25.8561 5.9035 -7.1250 0.0000 -0.0000 -17.7046 55.5678 -4.6985 0.0000 0.0000 0.0000 84.3411 -1.5355 15.2718 -16.1546 25.7298 -3.7128 0.0000 0.0000 18.4894 -18.8256 5.3074 -1.8062 7.1250 -0.0000 -0.0000 5.8577 -24.3764 2.9325
